<svg width="24" height="24" viewBox="0 0 24 24" fill="none" xmlns="http://www.w3.org/2000/svg">
<path d="M15.24 22.27H15.11C10.67 22.27 8.53001 20.52 8.16001 16.6C8.12001 16.19 8.42001 15.82 8.84001 15.78C9.24001 15.74 9.62001 16.05 9.66001 16.46C9.95001 19.6 11.43 20.77 15.12 20.77H15.25C19.32 20.77 20.76 19.33 20.76 15.26V8.73998C20.76 4.66998 19.32 3.22998 15.25 3.22998H15.12C11.41 3.22998 9.93001 4.41998 9.66001 7.61998C9.61001 8.02998 9.26001 8.33998 8.84001 8.29998C8.74145 8.29228 8.64539 8.2652 8.55732 8.22028C8.46925 8.17537 8.39092 8.11351 8.32681 8.03826C8.26271 7.96301 8.21409 7.87583 8.18375 7.78175C8.15341 7.68766 8.14194 7.58851 8.15001 7.48998C8.49001 3.50998 10.64 1.72998 15.11 1.72998H15.24C20.15 1.72998 22.25 3.82998 22.25 8.73998V15.26C22.25 20.17 20.15 22.27 15.24 22.27Z" fill="#FB493F"/>
<path d="M15 12.75H3.62001C3.21001 12.75 2.87001 12.41 2.87001 12C2.87001 11.59 3.21001 11.25 3.62001 11.25H15C15.41 11.25 15.75 11.59 15.75 12C15.75 12.41 15.41 12.75 15 12.75Z" fill="#FB493F"/>
<path d="M5.85001 16.1C5.66001 16.1 5.47001 16.03 5.32001 15.88L1.97001 12.53C1.83053 12.3888 1.7523 12.1984 1.7523 12C1.7523 11.8015 1.83053 11.6111 1.97001 11.47L5.32001 8.11997C5.61001 7.82997 6.09001 7.82997 6.38001 8.11997C6.67001 8.40997 6.67001 8.88997 6.38001 9.17997L3.56001 12L6.38001 14.82C6.67001 15.11 6.67001 15.59 6.38001 15.88C6.24001 16.03 6.04001 16.1 5.85001 16.1Z" fill="#FB493F"/>
</svg>
