<svg width="13" height="21" viewBox="0 0 13 21" fill="none" xmlns="http://www.w3.org/2000/svg">
<path opacity="0.4" d="M0.686399 7.45652L5.96483 5.23163C6.19721 5.13718 6.46279 5.13718 6.68411 5.23163L11.9736 7.45652C12.4384 7.65592 12.8699 7.12069 12.549 6.74288L7.01609 0.330585C6.63985 -0.110195 6.02016 -0.110195 5.64392 0.330585L0.110972 6.74288C-0.209939 7.12069 0.221631 7.65592 0.686399 7.45652Z" fill="#54C960"/>
<path opacity="0.4" d="M0.686414 13.5435L5.97591 15.7684C6.20829 15.8628 6.47387 15.8628 6.69519 15.7684L11.9847 13.5435C12.4495 13.3441 12.881 13.8793 12.5601 14.2571L7.02717 20.6694C6.65093 21.1102 6.03124 21.1102 5.655 20.6694L0.122053 14.2571C-0.209924 13.8793 0.21058 13.3441 0.686414 13.5435Z" fill="#54C960"/>
<path d="M5.96706 7.40672L1.39684 9.56864C0.987406 9.75754 0.987406 10.3138 1.39684 10.5027L5.96706 12.6646C6.12198 12.7381 6.3101 12.7381 6.46502 12.6646L11.0352 10.5027C11.4447 10.3138 11.4447 9.75754 11.0352 9.56864L6.46502 7.40672C6.38759 7.37044 6.3024 7.35158 6.21604 7.35158C6.12968 7.35158 6.04448 7.37044 5.96706 7.40672Z" fill="#54C960"/>
</svg>
