<svg width="13" height="21" viewBox="0 0 13 21" fill="none" xmlns="http://www.w3.org/2000/svg">
<path opacity="0.4" d="M0.686399 7.45652L5.96483 5.23163C6.19721 5.13718 6.46279 5.13718 6.68411 5.23163L11.9736 7.45652C12.4384 7.65592 12.8699 7.12069 12.549 6.74288L7.01609 0.330585C6.63985 -0.110195 6.02016 -0.110195 5.64392 0.330585L0.110972 6.74288C-0.209939 7.12069 0.221631 7.65592 0.686399 7.45652Z" fill="#38C947"/>
<path opacity="0.4" d="M0.686414 13.5435L5.97591 15.7684C6.20829 15.8628 6.47387 15.8628 6.69519 15.7684L11.9847 13.5435C12.4495 13.3441 12.881 13.8793 12.5601 14.2571L7.02717 20.6694C6.65093 21.1102 6.03124 21.1102 5.655 20.6694L0.122053 14.2571C-0.209924 13.8793 0.21058 13.3441 0.686414 13.5435Z" fill="#38C947"/>
<path d="M6.08658 7.86583L1.51637 10.0278C1.10693 10.2167 1.10693 10.7729 1.51637 10.9618L6.08658 13.1237C6.24151 13.1972 6.42962 13.1972 6.58455 13.1237L11.1548 10.9618C11.5642 10.7729 11.5642 10.2167 11.1548 10.0278L6.58455 7.86583C6.50712 7.82956 6.42192 7.81069 6.33557 7.81069C6.24921 7.81069 6.16401 7.82956 6.08658 7.86583Z" fill="#38C947"/>
</svg>
