<svg width="24" height="24" viewBox="0 0 24 24" fill="none" xmlns="http://www.w3.org/2000/svg">
<g opacity="0.8">
<path d="M12 22.75C6.07 22.75 1.25 17.93 1.25 12C1.25 6.07 6.07 1.25 12 1.25C17.93 1.25 22.75 6.07 22.75 12C22.75 17.93 17.93 22.75 12 22.75ZM12 2.75C6.9 2.75 2.75 6.9 2.75 12C2.75 17.1 6.9 21.25 12 21.25C17.1 21.25 21.25 17.1 21.25 12C21.25 6.9 17.1 2.75 12 2.75Z" fill="#6F7181"/>
<path d="M12.0008 17.3891C11.8233 17.3891 11.6543 17.3637 11.5107 17.313C9.69384 16.6962 6.81229 14.4822 6.81229 11.1866C6.81229 9.42892 8.23194 8.00082 9.98115 8.00082C10.7417 8.00082 11.443 8.26278 12.0092 8.73599C12.5754 8.26278 13.2852 8.00082 14.0288 8.00082C15.7781 8.00082 17.1977 9.42892 17.1977 11.1866C17.1977 14.4737 14.3162 16.6877 12.4909 17.313C12.3472 17.3637 12.1698 17.3891 12.0008 17.3891ZM9.9727 9.27681C8.92486 9.27681 8.07138 10.1387 8.07138 11.195C8.07138 14.1442 10.9191 15.7835 11.9163 16.1216C11.9501 16.13 12.0346 16.13 12.0684 16.1216C13.0655 15.7835 15.9133 14.1442 15.9133 11.195C15.9133 10.1387 15.0598 9.27681 14.0119 9.27681C13.4204 9.27681 12.8542 9.56412 12.4993 10.0458C12.2627 10.3669 11.7219 10.3669 11.4853 10.0458C11.3133 9.80576 11.0861 9.6106 10.8228 9.47677C10.5596 9.34294 10.268 9.27436 9.9727 9.27681Z" fill="#6F7181"/>
</g>
</svg>
