<svg width="24" height="24" viewBox="0 0 24 24" fill="none" xmlns="http://www.w3.org/2000/svg">
<path fill-rule="evenodd" clip-rule="evenodd" d="M10.324 20.106C10.842 20.683 11.507 21 12.197 21H12.198C12.891 21 13.559 20.683 14.078 20.105C14.2112 19.9571 14.3976 19.8682 14.5963 19.8578C14.795 19.8474 14.9897 19.9164 15.1375 20.0495C15.2854 20.1826 15.3743 20.3691 15.3847 20.5678C15.3951 20.7664 15.3262 20.9611 15.193 21.109C14.385 22.006 13.323 22.5 12.198 22.5H12.196C11.076 22.499 10.014 22.005 9.20901 21.108C9.14322 21.0348 9.09249 20.9493 9.05973 20.8565C9.02696 20.7637 9.01279 20.6653 9.01804 20.567C9.02329 20.4688 9.04784 20.3725 9.0903 20.2837C9.13277 20.1949 9.1923 20.1153 9.26551 20.0495C9.33873 19.9837 9.42418 19.933 9.517 19.9002C9.60981 19.8674 9.70817 19.8533 9.80646 19.8585C9.90476 19.8638 10.0011 19.8883 10.0899 19.9308C10.1787 19.9733 10.2582 20.0328 10.324 20.106ZM12.247 1C16.692 1 19.678 4.462 19.678 7.695C19.678 9.358 20.101 10.063 20.55 10.811C20.994 11.549 21.497 12.387 21.497 13.971C21.148 18.018 16.923 18.348 12.247 18.348C7.57101 18.348 3.34501 18.018 3.00001 14.035C2.99701 12.387 3.50001 11.549 3.94401 10.811L4.10101 10.547C4.48701 9.884 4.81601 9.162 4.81601 7.695C4.81601 4.462 7.80201 1 12.247 1ZM12.247 2.5C8.75201 2.5 6.31701 5.238 6.31701 7.695C6.31701 9.774 5.73901 10.735 5.22901 11.583C4.82001 12.264 4.49701 12.802 4.49701 13.971C4.66401 15.857 5.90901 16.848 12.247 16.848C18.55 16.848 19.834 15.813 20 13.906C19.997 12.802 19.674 12.264 19.265 11.583C18.755 10.735 18.178 9.774 18.178 7.695C18.178 5.238 15.742 2.5 12.248 2.5H12.247Z" fill="#1E1E2D"/>
</svg>
