<svg width="24" height="24" viewBox="0 0 24 24" fill="none" xmlns="http://www.w3.org/2000/svg">
<g opacity="0.8">
<path d="M14.7 22.75H9.29999C4.35999 22.75 2.25999 20.64 2.25999 15.71V11.22C2.25999 10.81 2.59999 10.47 3.00999 10.47C3.41999 10.47 3.75999 10.81 3.75999 11.22V15.71C3.75999 19.8 5.20999 21.25 9.29999 21.25H14.69C18.78 21.25 20.23 19.8 20.23 15.71V11.22C20.23 10.81 20.57 10.47 20.98 10.47C21.39 10.47 21.73 10.81 21.73 11.22V15.71C21.74 20.64 19.63 22.75 14.7 22.75Z" fill="#6F7181"/>
<path d="M11.999 12.75C10.899 12.75 9.89899 12.32 9.18899 11.53C8.47899 10.74 8.14899 9.71 8.25899 8.61L8.92899 1.93C8.96899 1.55 9.28899 1.25 9.67899 1.25H14.349C14.739 1.25 15.059 1.54 15.099 1.93L15.769 8.61C15.879 9.71 15.549 10.74 14.839 11.53C14.099 12.32 13.099 12.75 11.999 12.75ZM10.349 2.75L9.74899 8.76C9.67899 9.43 9.87899 10.06 10.299 10.52C11.149 11.46 12.849 11.46 13.699 10.52C14.119 10.05 14.319 9.42 14.249 8.76L13.649 2.75H10.349Z" fill="#6F7181"/>
<path d="M18.31 12.75C16.28 12.75 14.47 11.11 14.26 9.09L13.56 2.08C13.54 1.87 13.61 1.66 13.75 1.5C13.89 1.34 14.09 1.25 14.31 1.25H17.36C20.3 1.25 21.67 2.48 22.08 5.5L22.36 8.28C22.48 9.46 22.12 10.58 21.35 11.43C20.58 12.28 19.5 12.75 18.31 12.75ZM15.14 2.75L15.76 8.94C15.89 10.19 17.05 11.25 18.31 11.25C19.07 11.25 19.75 10.96 20.24 10.43C20.72 9.9 20.94 9.19 20.87 8.43L20.59 5.68C20.28 3.42 19.55 2.75 17.36 2.75H15.14Z" fill="#6F7181"/>
<path d="M5.639 12.75C4.449 12.75 3.369 12.28 2.599 11.43C1.829 10.58 1.469 9.46 1.589 8.28L1.859 5.53C2.279 2.48 3.649 1.25 6.589 1.25H9.639C9.849 1.25 10.049 1.34 10.199 1.5C10.349 1.66 10.409 1.87 10.389 2.08L9.689 9.09C9.479 11.11 7.669 12.75 5.639 12.75ZM6.589 2.75C4.399 2.75 3.669 3.41 3.349 5.7L3.079 8.43C2.999 9.19 3.229 9.9 3.709 10.43C4.189 10.96 4.869 11.25 5.639 11.25C6.899 11.25 8.069 10.19 8.189 8.94L8.809 2.75H6.589Z" fill="#6F7181"/>
<path d="M14.5 22.75H9.5C9.09 22.75 8.75 22.41 8.75 22V19.5C8.75 17.4 9.9 16.25 12 16.25C14.1 16.25 15.25 17.4 15.25 19.5V22C15.25 22.41 14.91 22.75 14.5 22.75ZM10.25 21.25H13.75V19.5C13.75 18.24 13.26 17.75 12 17.75C10.74 17.75 10.25 18.24 10.25 19.5V21.25Z" fill="#6F7181"/>
</g>
</svg>
