<svg width="28" height="43" viewBox="0 0 28 43" fill="none" xmlns="http://www.w3.org/2000/svg">
<path d="M13.9999 0H6.99996C3.13211 0 0 3.13211 0 6.99996C0 10.8678 3.13211 13.9999 6.99996 13.9999H13.9999V0Z" fill="#F24E1E"/>
<path d="M13.9999 14.0251H6.99996C3.13211 14.0251 0 17.1573 0 21.0251C0 24.8929 3.13211 28.0251 6.99996 28.0251H13.9999V14.0251Z" fill="#A259FF"/>
<path d="M13.9999 28.0166H6.99996C3.13211 28.0166 0 31.1487 0 35.0166C0 38.8844 3.13211 42.0165 6.99996 42.0165C10.8678 42.0165 13.9999 38.8844 13.9999 35.0166V28.0166Z" fill="#0ACF83"/>
<path d="M14.0002 0H21.0002C24.868 0 28.0002 3.13211 28.0002 6.99996C28.0002 10.8678 24.868 13.9999 21.0002 13.9999H14.0002V0Z" fill="#FF7262"/>
<path d="M21.0002 14.0251C24.868 14.0251 28.0002 17.1573 28.0002 21.0251C28.0002 24.8929 24.868 28.0251 21.0002 28.0251C17.1324 28.0251 14.0002 24.8929 14.0002 21.0251C14.0002 17.1573 17.1324 14.0251 21.0002 14.0251Z" fill="#1ABCFE"/>
</svg>
