<svg width="219" height="168" viewBox="0 0 219 168" fill="none" xmlns="http://www.w3.org/2000/svg">
<g filter="url(#filter0_d_13_1237)">
<rect x="54" y="36" width="110.798" height="60" rx="30" fill="white"/>
</g>
<rect opacity="0.5" x="112.021" y="42.9966" width="46.0067" height="46.0067" rx="23.0034" fill="#F5F5F5"/>
<g clip-path="url(#clip0_13_1237)">
<path opacity="0.8" d="M85.7953 76.7509C85.6253 76.7509 85.4553 76.7509 85.2853 76.7409C79.6853 76.4909 75.0053 71.9809 74.6153 66.4809C74.2753 61.7609 77.0053 57.3509 81.4053 55.5009C82.6553 54.9809 83.3153 55.3809 83.5953 55.6709C83.8753 55.9509 84.2653 56.6009 83.7453 57.7909C83.2858 58.8474 83.0541 59.9889 83.0653 61.1409C83.0853 65.5709 86.7653 69.3309 91.2553 69.5109C91.9053 69.5409 92.5453 69.4909 93.1653 69.3809C94.4853 69.1409 95.0353 69.6709 95.2453 70.0109C95.4553 70.3509 95.6953 71.0809 94.8953 72.1609C92.7753 75.0609 89.4053 76.7509 85.7953 76.7509ZM76.1053 66.3709C76.4453 71.1309 80.5053 75.0309 85.3453 75.2409C88.6353 75.4009 91.7553 73.9009 93.6753 71.2809C93.8253 71.0709 93.8953 70.9209 93.9253 70.8409C93.8353 70.8309 93.6753 70.8209 93.4253 70.8709C92.6953 71.0009 91.9353 71.0509 91.1853 71.0209C85.9053 70.8109 81.5853 66.3809 81.5553 61.1609C81.5553 59.7809 81.8253 58.4509 82.3753 57.2009C82.4753 56.9809 82.4953 56.8309 82.5053 56.7509C82.4153 56.7509 82.2553 56.7709 81.9953 56.8809C78.1853 58.4809 75.8253 62.3009 76.1053 66.3709Z" fill="#A1A2AF"/>
</g>
<path d="M134.812 73.25C130.812 73.25 127.562 70 127.562 66C127.562 62 130.812 58.75 134.812 58.75C138.812 58.75 142.062 62 142.062 66C142.062 70 138.812 73.25 134.812 73.25ZM134.812 60.25C131.642 60.25 129.062 62.83 129.062 66C129.062 69.17 131.642 71.75 134.812 71.75C137.982 71.75 140.562 69.17 140.562 66C140.562 62.83 137.982 60.25 134.812 60.25Z" fill="#FDB600"/>
<path d="M134.812 76.96C134.262 76.96 133.812 76.55 133.812 76V75.92C133.812 75.37 134.262 74.92 134.812 74.92C135.362 74.92 135.812 75.37 135.812 75.92C135.812 76.47 135.362 76.96 134.812 76.96ZM141.952 74.14C141.692 74.14 141.442 74.04 141.242 73.85L141.112 73.72C141.019 73.6274 140.946 73.5175 140.895 73.3965C140.845 73.2756 140.82 73.1459 140.82 73.015C140.82 72.8841 140.845 72.7544 140.895 72.6335C140.946 72.5125 141.019 72.4026 141.112 72.31C141.204 72.2174 141.314 72.144 141.435 72.0939C141.556 72.0438 141.686 72.018 141.817 72.018C141.947 72.018 142.077 72.0438 142.198 72.0939C142.319 72.144 142.429 72.2174 142.522 72.31L142.652 72.44C142.79 72.5791 142.885 72.7561 142.924 72.9489C142.962 73.1416 142.943 73.3415 142.868 73.5232C142.793 73.705 142.666 73.8606 142.503 73.9703C142.34 74.0801 142.148 74.1391 141.952 74.14ZM127.672 74.14C127.412 74.14 127.162 74.04 126.962 73.85C126.869 73.7575 126.795 73.6476 126.745 73.5266C126.695 73.4057 126.669 73.276 126.669 73.145C126.669 73.014 126.695 72.8843 126.745 72.7634C126.795 72.6424 126.869 72.5325 126.962 72.44L127.092 72.31C127.184 72.2174 127.294 72.144 127.415 72.0939C127.536 72.0438 127.666 72.018 127.797 72.018C127.927 72.018 128.057 72.0438 128.178 72.0939C128.299 72.144 128.409 72.2174 128.502 72.31C128.594 72.4026 128.668 72.5125 128.718 72.6335C128.768 72.7544 128.794 72.8841 128.794 73.015C128.794 73.1459 128.768 73.2756 128.718 73.3965C128.668 73.5175 128.594 73.6274 128.502 73.72L128.372 73.85C128.182 74.04 127.922 74.14 127.672 74.14ZM144.812 67H144.732C144.182 67 143.732 66.55 143.732 66C143.732 65.45 144.182 65 144.732 65C145.282 65 145.772 65.45 145.772 66C145.772 66.55 145.362 67 144.812 67ZM124.892 67H124.812C124.262 67 123.812 66.55 123.812 66C123.812 65.45 124.262 65 124.812 65C125.362 65 125.852 65.45 125.852 66C125.852 66.55 125.442 67 124.892 67ZM141.822 59.99C141.562 59.99 141.312 59.89 141.112 59.7C141.019 59.6075 140.945 59.4976 140.895 59.3766C140.845 59.2557 140.819 59.126 140.819 58.995C140.819 58.864 140.845 58.7343 140.895 58.6134C140.945 58.4924 141.019 58.3825 141.112 58.29L141.242 58.16C141.334 58.0674 141.444 57.994 141.565 57.9439C141.686 57.8938 141.816 57.868 141.947 57.868C142.077 57.868 142.207 57.8938 142.328 57.9439C142.449 57.994 142.559 58.0674 142.652 58.16C142.744 58.2526 142.818 58.3625 142.868 58.4835C142.918 58.6044 142.944 58.7341 142.944 58.865C142.944 58.9959 142.918 59.1256 142.868 59.2465C142.818 59.3675 142.744 59.4774 142.652 59.57L142.522 59.7C142.332 59.89 142.082 59.99 141.822 59.99ZM127.802 59.99C127.542 59.99 127.292 59.89 127.092 59.7L126.962 59.56C126.869 59.4674 126.796 59.3575 126.745 59.2365C126.695 59.1156 126.67 58.9859 126.67 58.855C126.67 58.7241 126.695 58.5944 126.745 58.4735C126.796 58.3525 126.869 58.2426 126.962 58.15C127.054 58.0574 127.164 57.984 127.285 57.9339C127.406 57.8838 127.536 57.858 127.667 57.858C127.797 57.858 127.927 57.8838 128.048 57.9339C128.169 57.984 128.279 58.0574 128.372 58.15L128.502 58.28C128.892 58.67 128.892 59.3 128.502 59.69C128.312 59.89 128.052 59.99 127.802 59.99ZM134.812 57.04C134.262 57.04 133.812 56.63 133.812 56.08V56C133.812 55.45 134.262 55 134.812 55C135.362 55 135.812 55.45 135.812 56C135.812 56.55 135.362 57.04 134.812 57.04Z" fill="#FDB600"/>
<defs>
<filter id="filter0_d_13_1237" x="0" y="0" width="218.798" height="168" filterUnits="userSpaceOnUse" color-interpolation-filters="sRGB">
<feFlood flood-opacity="0" result="BackgroundImageFix"/>
<feColorMatrix in="SourceAlpha" type="matrix" values="0 0 0 0 0 0 0 0 0 0 0 0 0 0 0 0 0 0 127 0" result="hardAlpha"/>
<feOffset dy="18"/>
<feGaussianBlur stdDeviation="27"/>
<feComposite in2="hardAlpha" operator="out"/>
<feColorMatrix type="matrix" values="0 0 0 0 0 0 0 0 0 0 0 0 0 0 0 0 0 0 0.02 0"/>
<feBlend mode="normal" in2="BackgroundImageFix" result="effect1_dropShadow_13_1237"/>
<feBlend mode="normal" in="SourceGraphic" in2="effect1_dropShadow_13_1237" result="shape"/>
</filter>
<clipPath id="clip0_13_1237">
<rect width="24" height="24" fill="white" transform="translate(72.1985 53.9999)"/>
</clipPath>
</defs>
</svg>
