<svg width="24" height="24" viewBox="0 0 24 24" fill="none" xmlns="http://www.w3.org/2000/svg">
<g opacity="0.8">
<path d="M5.2 10.46C5.01 10.46 4.81 10.38 4.67 10.24C4.56581 10.1341 4.49508 9.99988 4.46663 9.85407C4.43818 9.70826 4.45326 9.5573 4.51 9.42L6.37 4.98C6.41 4.89 6.43 4.83 6.46 4.78C7.94 1.37 9.83 0.539999 13.17 1.82C13.36 1.89 13.51 2.04 13.59 2.23C13.67 2.42 13.67 2.63 13.59 2.82L10.66 9.62C10.54 9.9 10.27 10.07 9.97 10.07H7.12C6.55 10.07 6.01 10.18 5.49 10.4C5.4 10.44 5.3 10.46 5.2 10.46ZM10.61 2.75C9.37 2.75 8.61 3.56 7.82 5.4C7.81 5.43 7.79 5.46 7.78 5.49L6.47 8.6C6.69 8.58 6.9 8.57 7.12 8.57H9.47L11.88 2.97C11.41 2.82 10.99 2.75 10.61 2.75Z" fill="#6F7181"/>
<path d="M18.29 10.27C18.22 10.27 18.14 10.26 18.07 10.24C17.69 10.13 17.29 10.07 16.87 10.07H9.97001C9.72001 10.07 9.48001 9.93999 9.34001 9.72999C9.27403 9.62505 9.23414 9.50582 9.2237 9.38229C9.21326 9.25876 9.23257 9.13453 9.28001 9.01999L12.18 2.28999C12.33 1.92999 12.77 1.67999 13.14 1.80999C13.26 1.84999 13.37 1.89999 13.49 1.94999L15.85 2.93999C17.23 3.50999 18.15 4.10999 18.75 4.82999C18.87 4.96999 18.97 5.11999 19.07 5.27999C19.18 5.44999 19.28 5.64999 19.35 5.85999C19.38 5.92999 19.43 6.05999 19.46 6.19999C19.74 7.14999 19.6 8.30999 19 9.80999C18.9374 9.94609 18.8375 10.0616 18.7118 10.143C18.5861 10.2245 18.4398 10.2685 18.29 10.27ZM11.11 8.56999H16.88C17.2 8.56999 17.51 8.59999 17.82 8.64999C18.1 7.77999 18.16 7.10999 18 6.56999C17.98 6.47999 17.96 6.43999 17.95 6.39999C17.89 6.23999 17.85 6.14999 17.8 6.06999C17.73 5.95999 17.68 5.86999 17.6 5.77999C17.17 5.25999 16.41 4.77999 15.27 4.30999L13.3 3.48999L11.11 8.56999Z" fill="#6F7181"/>
<path d="M15.9 22.75H8.1C7.82 22.75 7.56 22.73 7.3 22.7C3.79 22.47 1.79 20.46 1.55 16.91C1.52 16.69 1.5 16.42 1.5 16.15V14.2C1.5 11.95 2.84 9.91999 4.91 9.01999C5.62 8.71999 6.36 8.56999 7.13 8.56999H16.89C17.46 8.56999 18.01 8.64999 18.52 8.80999C20.87 9.51999 22.52 11.74 22.52 14.2V16.15C22.52 16.37 22.51 16.58 22.5 16.78C22.28 20.69 20 22.75 15.9 22.75ZM7.12 10.07C6.55 10.07 6.01 10.18 5.49 10.4C3.97 11.06 2.99 12.55 2.99 14.2V16.15C2.99 16.36 3.01 16.57 3.03 16.77C3.22 19.62 4.62 21.02 7.43 21.21C7.68 21.24 7.88 21.26 8.09 21.26H15.89C19.19 21.26 20.81 19.81 20.97 16.71C20.98 16.53 20.99 16.35 20.99 16.15V14.2C20.99 12.39 19.78 10.77 18.06 10.24C17.68 10.13 17.28 10.07 16.86 10.07H7.12Z" fill="#6F7181"/>
<path d="M2.24001 14.95C1.83001 14.95 1.49001 14.61 1.49001 14.2V11.27C1.49001 8.12 3.72001 5.4 6.80001 4.8C7.07001 4.75 7.35001 4.85 7.53001 5.06C7.70001 5.27 7.75001 5.57 7.64001 5.82L5.89001 10C5.8123 10.1759 5.67385 10.3179 5.50001 10.4C3.98001 11.06 3.00001 12.55 3.00001 14.2C2.99001 14.61 2.66001 14.95 2.24001 14.95ZM5.60001 6.82C4.95945 7.18112 4.40445 7.67634 3.97297 8.27178C3.54149 8.86723 3.24371 9.54884 3.10001 10.27C3.54001 9.82 4.05001 9.44 4.63001 9.16L5.60001 6.82Z" fill="#6F7181"/>
<path d="M21.76 14.95C21.35 14.95 21.01 14.61 21.01 14.2C21.01 12.39 19.8 10.77 18.08 10.24C17.9807 10.2107 17.8886 10.1609 17.8096 10.0939C17.7306 10.027 17.6665 9.94423 17.6213 9.85104C17.5761 9.75786 17.5509 9.65626 17.5472 9.55276C17.5435 9.44926 17.5615 9.34614 17.6 9.24999C18.07 8.07999 18.19 7.22999 18 6.56999C17.98 6.47999 17.96 6.43999 17.95 6.39999C17.8872 6.25809 17.8698 6.10021 17.9002 5.94803C17.9307 5.79585 18.0074 5.65681 18.12 5.54999C18.35 5.32999 18.7 5.27999 18.98 5.42999C20.0469 5.98671 20.9403 6.82579 21.5628 7.85566C22.1853 8.88553 22.513 10.0666 22.51 11.27V14.2C22.51 14.61 22.17 14.95 21.76 14.95ZM19.25 9.08999C19.88 9.37999 20.44 9.78999 20.91 10.28C20.72 9.29999 20.25 8.40999 19.56 7.70999C19.51 8.12999 19.41 8.58999 19.25 9.08999Z" fill="#6F7181"/>
</g>
</svg>
