<svg width="24" height="24" viewBox="0 0 24 24" fill="none" xmlns="http://www.w3.org/2000/svg">
<path d="M15.24 22.27H15.11C10.67 22.27 8.52997 20.52 8.15997 16.6C8.11997 16.19 8.41997 15.82 8.83997 15.78C9.23997 15.74 9.61997 16.05 9.65997 16.46C9.94997 19.6 11.43 20.77 15.12 20.77H15.25C19.32 20.77 20.76 19.33 20.76 15.26V8.73998C20.76 4.66998 19.32 3.22998 15.25 3.22998H15.12C11.41 3.22998 9.92997 4.41998 9.65997 7.61998C9.60997 8.02998 9.25997 8.33998 8.83997 8.29998C8.74141 8.29228 8.64534 8.2652 8.55727 8.22028C8.46921 8.17537 8.39087 8.11351 8.32677 8.03826C8.26266 7.96301 8.21404 7.87583 8.1837 7.78175C8.15336 7.68766 8.1419 7.58851 8.14997 7.48998C8.48997 3.50998 10.64 1.72998 15.11 1.72998H15.24C20.15 1.72998 22.25 3.82998 22.25 8.73998V15.26C22.25 20.17 20.15 22.27 15.24 22.27Z" fill="#FB6B63"/>
<path d="M15 12.75H3.62C3.21 12.75 2.87 12.41 2.87 12C2.87 11.59 3.21 11.25 3.62 11.25H15C15.41 11.25 15.75 11.59 15.75 12C15.75 12.41 15.41 12.75 15 12.75Z" fill="#FB6B63"/>
<path d="M5.85002 16.1C5.66002 16.1 5.47002 16.03 5.32002 15.88L1.97002 12.53C1.83054 12.3888 1.75232 12.1984 1.75232 12C1.75232 11.8015 1.83054 11.6111 1.97002 11.47L5.32002 8.11997C5.61002 7.82997 6.09002 7.82997 6.38002 8.11997C6.67002 8.40997 6.67002 8.88997 6.38002 9.17997L3.56002 12L6.38002 14.82C6.67002 15.11 6.67002 15.59 6.38002 15.88C6.24002 16.03 6.04002 16.1 5.85002 16.1Z" fill="#FB6B63"/>
</svg>
